# xmcd
#
# Track frame offsets: 
#        150
#        22716
#        50524
#        74541
#        93415
#
# Disc length: 1548 seconds
#
# Revision: 0
# Processed by: cddbd v1.5.2PL0 Copyright (c) Steve Scherf et al.
# Submitted via: ExactAudioCopy v0.99pb3
#
DISCID=38060a05
DTITLE=Sielunvaellus - Lento EP
DYEAR=1900
DGENRE=Hip-Hop
TTITLE0=Jiihaa
TTITLE1=Ääntä
TTITLE2=Kynttilä
TTITLE3=Täten
TTITLE4=Vaivoin
EXTD=
EXTT0=
EXTT1=
EXTT2=
EXTT3=
EXTT4=
PLAYORDER=
